<mxfile host="Electron" agent="Mozilla/5.0 (Windows NT 10.0; Win64; x64) AppleWebKit/537.36 (KHTML, like Gecko) draw.io/26.2.2 Chrome/134.0.6998.178 Electron/35.1.2 Safari/537.36" version="26.2.2">
  <diagram name="Trang-1" id="58Z3_BH4jIx3prpK2FC-">
    <mxGraphModel dx="1092" dy="742" grid="1" gridSize="10" guides="1" tooltips="1" connect="1" arrows="1" fold="1" page="1" pageScale="1" pageWidth="850" pageHeight="1100" math="0" shadow="0">
      <root>
        <mxCell id="0" />
        <mxCell id="1" parent="0" />
        <mxCell id="ra3UjZoKNm8svRvOKKK3-1" value="" style="swimlane;childLayout=stackLayout;resizeParent=1;resizeParentMax=0;startSize=20;html=1;" parent="1" vertex="1">
          <mxGeometry x="50" y="130" width="822.5" height="870" as="geometry" />
        </mxCell>
        <mxCell id="ra3UjZoKNm8svRvOKKK3-7" value="" style="edgeStyle=orthogonalEdgeStyle;html=1;verticalAlign=bottom;endArrow=open;endSize=8;strokeColor=#ff0000;rounded=0;entryX=0;entryY=0.5;entryDx=0;entryDy=0;" parent="ra3UjZoKNm8svRvOKKK3-1" source="ra3UjZoKNm8svRvOKKK3-6" target="ra3UjZoKNm8svRvOKKK3-8" edge="1">
          <mxGeometry relative="1" as="geometry">
            <mxPoint x="15" y="130" as="targetPoint" />
            <Array as="points">
              <mxPoint x="290" y="55" />
              <mxPoint x="290" y="70" />
            </Array>
          </mxGeometry>
        </mxCell>
        <mxCell id="ra3UjZoKNm8svRvOKKK3-2" value="USER" style="swimlane;startSize=20;html=1;" parent="ra3UjZoKNm8svRvOKKK3-1" vertex="1">
          <mxGeometry y="20" width="352.5" height="850" as="geometry" />
        </mxCell>
        <mxCell id="ra3UjZoKNm8svRvOKKK3-6" value="" style="ellipse;html=1;shape=startState;fillColor=#000000;strokeColor=#ff0000;" parent="ra3UjZoKNm8svRvOKKK3-2" vertex="1">
          <mxGeometry y="20" width="30" height="30" as="geometry" />
        </mxCell>
        <mxCell id="ra3UjZoKNm8svRvOKKK3-21" value="" style="edgeStyle=orthogonalEdgeStyle;rounded=0;orthogonalLoop=1;jettySize=auto;html=1;" parent="ra3UjZoKNm8svRvOKKK3-2" source="ra3UjZoKNm8svRvOKKK3-16" target="ra3UjZoKNm8svRvOKKK3-20" edge="1">
          <mxGeometry relative="1" as="geometry" />
        </mxCell>
        <mxCell id="ra3UjZoKNm8svRvOKKK3-16" value="Choose Room" style="rounded=1;whiteSpace=wrap;html=1;" parent="ra3UjZoKNm8svRvOKKK3-2" vertex="1">
          <mxGeometry x="60" y="105" width="90" height="40" as="geometry" />
        </mxCell>
        <mxCell id="ra3UjZoKNm8svRvOKKK3-20" value="Fill information in room book form" style="rounded=1;whiteSpace=wrap;html=1;" parent="ra3UjZoKNm8svRvOKKK3-2" vertex="1">
          <mxGeometry x="60" y="215" width="90" height="45" as="geometry" />
        </mxCell>
        <mxCell id="ra3UjZoKNm8svRvOKKK3-40" value="" style="edgeStyle=orthogonalEdgeStyle;rounded=0;orthogonalLoop=1;jettySize=auto;html=1;" parent="ra3UjZoKNm8svRvOKKK3-2" source="ra3UjZoKNm8svRvOKKK3-34" target="ra3UjZoKNm8svRvOKKK3-39" edge="1">
          <mxGeometry relative="1" as="geometry" />
        </mxCell>
        <mxCell id="ra3UjZoKNm8svRvOKKK3-41" value="" style="edgeStyle=orthogonalEdgeStyle;rounded=0;orthogonalLoop=1;jettySize=auto;html=1;" parent="ra3UjZoKNm8svRvOKKK3-2" source="ra3UjZoKNm8svRvOKKK3-34" edge="1">
          <mxGeometry relative="1" as="geometry">
            <mxPoint x="39.99999666666622" y="340" as="targetPoint" />
          </mxGeometry>
        </mxCell>
        <mxCell id="ra3UjZoKNm8svRvOKKK3-34" value="Confirm" style="rhombus;whiteSpace=wrap;html=1;rounded=1;" parent="ra3UjZoKNm8svRvOKKK3-2" vertex="1">
          <mxGeometry x="60" y="299.99" width="105" height="80" as="geometry" />
        </mxCell>
        <mxCell id="ra3UjZoKNm8svRvOKKK3-39" value="Fill payment information form" style="whiteSpace=wrap;html=1;rounded=1;" parent="ra3UjZoKNm8svRvOKKK3-2" vertex="1">
          <mxGeometry x="52.5" y="440" width="120" height="60" as="geometry" />
        </mxCell>
        <mxCell id="CCb7hwlriBmFhbB9g7oW-1" value="" style="shape=sumEllipse;perimeter=ellipsePerimeter;whiteSpace=wrap;html=1;backgroundOutline=1;" vertex="1" parent="ra3UjZoKNm8svRvOKKK3-2">
          <mxGeometry x="5" y="329.99" width="20" height="20" as="geometry" />
        </mxCell>
        <mxCell id="ra3UjZoKNm8svRvOKKK3-17" value="" style="edgeStyle=orthogonalEdgeStyle;rounded=0;orthogonalLoop=1;jettySize=auto;html=1;" parent="ra3UjZoKNm8svRvOKKK3-1" source="ra3UjZoKNm8svRvOKKK3-9" target="ra3UjZoKNm8svRvOKKK3-16" edge="1">
          <mxGeometry relative="1" as="geometry" />
        </mxCell>
        <mxCell id="ra3UjZoKNm8svRvOKKK3-23" value="" style="edgeStyle=orthogonalEdgeStyle;rounded=0;orthogonalLoop=1;jettySize=auto;html=1;" parent="ra3UjZoKNm8svRvOKKK3-1" source="ra3UjZoKNm8svRvOKKK3-20" target="ra3UjZoKNm8svRvOKKK3-22" edge="1">
          <mxGeometry relative="1" as="geometry" />
        </mxCell>
        <mxCell id="ra3UjZoKNm8svRvOKKK3-3" value="SYSTEM" style="swimlane;startSize=20;html=1;" parent="ra3UjZoKNm8svRvOKKK3-1" vertex="1">
          <mxGeometry x="352.5" y="20" width="470" height="850" as="geometry" />
        </mxCell>
        <mxCell id="ra3UjZoKNm8svRvOKKK3-11" style="edgeStyle=orthogonalEdgeStyle;rounded=0;orthogonalLoop=1;jettySize=auto;html=1;exitX=1;exitY=0.5;exitDx=0;exitDy=0;entryX=0.5;entryY=0;entryDx=0;entryDy=0;" parent="ra3UjZoKNm8svRvOKKK3-3" source="ra3UjZoKNm8svRvOKKK3-8" target="ra3UjZoKNm8svRvOKKK3-10" edge="1">
          <mxGeometry relative="1" as="geometry" />
        </mxCell>
        <mxCell id="ra3UjZoKNm8svRvOKKK3-8" value="Book Room" style="rounded=1;whiteSpace=wrap;html=1;" parent="ra3UjZoKNm8svRvOKKK3-3" vertex="1">
          <mxGeometry x="40" y="30" width="80" height="40" as="geometry" />
        </mxCell>
        <mxCell id="ra3UjZoKNm8svRvOKKK3-14" style="edgeStyle=orthogonalEdgeStyle;rounded=0;orthogonalLoop=1;jettySize=auto;html=1;exitX=1;exitY=0.5;exitDx=0;exitDy=0;entryX=0;entryY=0.5;entryDx=0;entryDy=0;" parent="ra3UjZoKNm8svRvOKKK3-3" source="ra3UjZoKNm8svRvOKKK3-10" target="ra3UjZoKNm8svRvOKKK3-13" edge="1">
          <mxGeometry relative="1" as="geometry" />
        </mxCell>
        <mxCell id="ra3UjZoKNm8svRvOKKK3-10" value="Check rooms availble" style="rhombus;whiteSpace=wrap;html=1;" parent="ra3UjZoKNm8svRvOKKK3-3" vertex="1">
          <mxGeometry x="155" y="95" width="130" height="60" as="geometry" />
        </mxCell>
        <mxCell id="ra3UjZoKNm8svRvOKKK3-9" value="Display room search interface" style="rounded=1;whiteSpace=wrap;html=1;" parent="ra3UjZoKNm8svRvOKKK3-3" vertex="1">
          <mxGeometry x="15" y="100" width="90" height="50" as="geometry" />
        </mxCell>
        <mxCell id="ra3UjZoKNm8svRvOKKK3-12" style="edgeStyle=orthogonalEdgeStyle;rounded=0;orthogonalLoop=1;jettySize=auto;html=1;exitX=0;exitY=0.5;exitDx=0;exitDy=0;entryX=1;entryY=0.5;entryDx=0;entryDy=0;" parent="ra3UjZoKNm8svRvOKKK3-3" source="ra3UjZoKNm8svRvOKKK3-10" target="ra3UjZoKNm8svRvOKKK3-9" edge="1">
          <mxGeometry relative="1" as="geometry">
            <Array as="points">
              <mxPoint x="145" y="125" />
              <mxPoint x="145" y="125" />
            </Array>
          </mxGeometry>
        </mxCell>
        <mxCell id="ra3UjZoKNm8svRvOKKK3-13" value="Notice: No rooms are available." style="rounded=1;whiteSpace=wrap;html=1;" parent="ra3UjZoKNm8svRvOKKK3-3" vertex="1">
          <mxGeometry x="355" y="105" width="110" height="40" as="geometry" />
        </mxCell>
        <mxCell id="ra3UjZoKNm8svRvOKKK3-26" value="" style="edgeStyle=orthogonalEdgeStyle;rounded=0;orthogonalLoop=1;jettySize=auto;html=1;" parent="ra3UjZoKNm8svRvOKKK3-3" source="ra3UjZoKNm8svRvOKKK3-22" target="ra3UjZoKNm8svRvOKKK3-25" edge="1">
          <mxGeometry relative="1" as="geometry" />
        </mxCell>
        <mxCell id="ra3UjZoKNm8svRvOKKK3-32" value="" style="edgeStyle=orthogonalEdgeStyle;rounded=0;orthogonalLoop=1;jettySize=auto;html=1;" parent="ra3UjZoKNm8svRvOKKK3-3" source="ra3UjZoKNm8svRvOKKK3-22" target="ra3UjZoKNm8svRvOKKK3-31" edge="1">
          <mxGeometry relative="1" as="geometry" />
        </mxCell>
        <mxCell id="ra3UjZoKNm8svRvOKKK3-22" value="Valid information" style="rhombus;whiteSpace=wrap;html=1;rounded=1;" parent="ra3UjZoKNm8svRvOKKK3-3" vertex="1">
          <mxGeometry x="75" y="205.78" width="115" height="63.43" as="geometry" />
        </mxCell>
        <mxCell id="ra3UjZoKNm8svRvOKKK3-25" value="Notice: Try again" style="whiteSpace=wrap;html=1;rounded=1;" parent="ra3UjZoKNm8svRvOKKK3-3" vertex="1">
          <mxGeometry x="225" y="207.495" width="120" height="60" as="geometry" />
        </mxCell>
        <mxCell id="ra3UjZoKNm8svRvOKKK3-31" value="Re-Check Information" style="whiteSpace=wrap;html=1;rounded=1;" parent="ra3UjZoKNm8svRvOKKK3-3" vertex="1">
          <mxGeometry x="72.5" y="309.995" width="120" height="60" as="geometry" />
        </mxCell>
        <mxCell id="ra3UjZoKNm8svRvOKKK3-47" value="" style="edgeStyle=orthogonalEdgeStyle;rounded=0;orthogonalLoop=1;jettySize=auto;html=1;" parent="ra3UjZoKNm8svRvOKKK3-3" source="ra3UjZoKNm8svRvOKKK3-43" target="ra3UjZoKNm8svRvOKKK3-46" edge="1">
          <mxGeometry relative="1" as="geometry" />
        </mxCell>
        <mxCell id="ra3UjZoKNm8svRvOKKK3-43" value="System check bill" style="rhombus;whiteSpace=wrap;html=1;rounded=1;" parent="ra3UjZoKNm8svRvOKKK3-3" vertex="1">
          <mxGeometry x="197.5" y="430" width="175" height="80" as="geometry" />
        </mxCell>
        <mxCell id="ra3UjZoKNm8svRvOKKK3-49" value="" style="edgeStyle=orthogonalEdgeStyle;rounded=0;orthogonalLoop=1;jettySize=auto;html=1;" parent="ra3UjZoKNm8svRvOKKK3-3" source="ra3UjZoKNm8svRvOKKK3-46" target="ra3UjZoKNm8svRvOKKK3-48" edge="1">
          <mxGeometry relative="1" as="geometry" />
        </mxCell>
        <mxCell id="ra3UjZoKNm8svRvOKKK3-46" value="Look room and save to database" style="whiteSpace=wrap;html=1;rounded=1;" parent="ra3UjZoKNm8svRvOKKK3-3" vertex="1">
          <mxGeometry x="225" y="550" width="120" height="60" as="geometry" />
        </mxCell>
        <mxCell id="ra3UjZoKNm8svRvOKKK3-48" value="" style="ellipse;html=1;shape=endState;fillColor=#000000;strokeColor=#ff0000;" parent="ra3UjZoKNm8svRvOKKK3-3" vertex="1">
          <mxGeometry x="270.5" y="730" width="30" height="30" as="geometry" />
        </mxCell>
        <mxCell id="ra3UjZoKNm8svRvOKKK3-30" style="edgeStyle=orthogonalEdgeStyle;rounded=0;orthogonalLoop=1;jettySize=auto;html=1;entryX=0.75;entryY=0;entryDx=0;entryDy=0;" parent="ra3UjZoKNm8svRvOKKK3-1" source="ra3UjZoKNm8svRvOKKK3-25" target="ra3UjZoKNm8svRvOKKK3-20" edge="1">
          <mxGeometry relative="1" as="geometry">
            <mxPoint x="570" y="190" as="targetPoint" />
            <Array as="points">
              <mxPoint x="600" y="215" />
              <mxPoint x="127" y="215" />
            </Array>
          </mxGeometry>
        </mxCell>
        <mxCell id="ra3UjZoKNm8svRvOKKK3-35" value="" style="edgeStyle=orthogonalEdgeStyle;rounded=0;orthogonalLoop=1;jettySize=auto;html=1;" parent="ra3UjZoKNm8svRvOKKK3-1" source="ra3UjZoKNm8svRvOKKK3-31" target="ra3UjZoKNm8svRvOKKK3-34" edge="1">
          <mxGeometry relative="1" as="geometry" />
        </mxCell>
        <mxCell id="ra3UjZoKNm8svRvOKKK3-44" value="" style="edgeStyle=orthogonalEdgeStyle;rounded=0;orthogonalLoop=1;jettySize=auto;html=1;" parent="ra3UjZoKNm8svRvOKKK3-1" source="ra3UjZoKNm8svRvOKKK3-39" target="ra3UjZoKNm8svRvOKKK3-43" edge="1">
          <mxGeometry relative="1" as="geometry" />
        </mxCell>
        <mxCell id="ra3UjZoKNm8svRvOKKK3-45" style="edgeStyle=orthogonalEdgeStyle;rounded=0;orthogonalLoop=1;jettySize=auto;html=1;entryX=0.75;entryY=0;entryDx=0;entryDy=0;" parent="ra3UjZoKNm8svRvOKKK3-1" source="ra3UjZoKNm8svRvOKKK3-43" target="ra3UjZoKNm8svRvOKKK3-39" edge="1">
          <mxGeometry relative="1" as="geometry">
            <Array as="points">
              <mxPoint x="637" y="440" />
              <mxPoint x="143" y="440" />
            </Array>
          </mxGeometry>
        </mxCell>
      </root>
    </mxGraphModel>
  </diagram>
</mxfile>
